<svg xmlns="http://www.w3.org/2000/svg" viewBox="0 0 220 67"><defs><style>.cls-1{fill:#fff;}</style></defs><g id="Layer_2" data-name="Layer 2"><g id="Layer_1-2" data-name="Layer 1"><path class="cls-1" d="M211.49,1.46a7.07,7.07,0,0,1,7,7.06v50a7.07,7.07,0,0,1-7,7.06H8.5a7.07,7.07,0,0,1-7-7.06v-50a7.07,7.07,0,0,1,7-7.06Zm0-1.46H8.5A8.5,8.5,0,0,0,0,8.52v50A8.5,8.5,0,0,0,8.5,67h203A8.5,8.5,0,0,0,220,58.48v-50A8.5,8.5,0,0,0,211.49,0Z"/><path class="cls-1" d="M23.16,27.38c-3.57,6.2-1.3,15.61,2.65,21.32,2,2.85,4,5.41,6.7,5.41h.15a8.09,8.09,0,0,0,3.11-.83,8.52,8.52,0,0,1,3.68-.87,8.08,8.08,0,0,1,3.51.84,7.3,7.3,0,0,0,3.36.81c3.08-.06,5-2.82,6.63-5.26a23.37,23.37,0,0,0,2.91-6v0a.36.36,0,0,0,0-.25.37.37,0,0,0-.17-.18h0a8.84,8.84,0,0,1-5.34-8.09,9.08,9.08,0,0,1,4.29-7.6l0,0a.43.43,0,0,0,.1-.09.29.29,0,0,0,0-.13.33.33,0,0,0,0-.14.43.43,0,0,0,0-.12,9.94,9.94,0,0,0-7.85-4.27,5.32,5.32,0,0,0-.69,0,13.85,13.85,0,0,0-4.93,1.23,7.92,7.92,0,0,1-2.36.71,7.75,7.75,0,0,1-2.44-.71A11.71,11.71,0,0,0,32.16,22h-.11A10.57,10.57,0,0,0,23.16,27.38Z"/><path class="cls-1" d="M46.88,11.83a9.6,9.6,0,0,0-6.36,3.27,9.06,9.06,0,0,0-2.29,6.71.37.37,0,0,0,.11.2.4.4,0,0,0,.21.09l.45,0A8.16,8.16,0,0,0,45,19a9.54,9.54,0,0,0,2.24-6.9.35.35,0,0,0-.12-.22A.41.41,0,0,0,46.88,11.83Z"/><path class="cls-1" d="M72,13.17h4.14a6,6,0,0,1,2.89.67,5,5,0,0,1,2,1.86,5.57,5.57,0,0,1,.7,2.7,5.52,5.52,0,0,1-.7,2.7A4.92,4.92,0,0,1,79,23a6,6,0,0,1-2.89.67H72ZM76.06,23a5.54,5.54,0,0,0,2.56-.57,4.12,4.12,0,0,0,1.7-1.61,5,5,0,0,0,0-4.73,4.12,4.12,0,0,0-1.7-1.61,5.55,5.55,0,0,0-2.56-.58H72.75V23Z"/><path class="cls-1" d="M85.14,23.19a3.65,3.65,0,0,1-1.4-1.41,4.36,4.36,0,0,1,0-4.09,3.65,3.65,0,0,1,1.4-1.41,4.14,4.14,0,0,1,4,0,3.65,3.65,0,0,1,1.4,1.41,4.36,4.36,0,0,1,0,4.09,3.65,3.65,0,0,1-1.4,1.41,4.14,4.14,0,0,1-4,0Zm3.6-.58a3.07,3.07,0,0,0,1.12-1.17,3.78,3.78,0,0,0,.41-1.71,3.71,3.71,0,0,0-.41-1.7,3,3,0,0,0-1.12-1.18,3.3,3.3,0,0,0-3.22,0A3,3,0,0,0,84.4,18a3.71,3.71,0,0,0-.41,1.7,3.78,3.78,0,0,0,.41,1.71,3.07,3.07,0,0,0,1.12,1.17,3.3,3.3,0,0,0,3.22,0Z"/><path class="cls-1" d="M104.27,15.83l-3,7.81h-.7L98,16.86l-2.65,6.78h-.69l-3-7.81h.71l2.6,7,2.66-7h.64l2.65,7,2.63-6.95Z"/><path class="cls-1" d="M112.12,16.62a3.37,3.37,0,0,1,.85,2.46v4.56h-.75v-4.5a2.8,2.8,0,0,0-.66-2,2.47,2.47,0,0,0-1.86-.69,2.87,2.87,0,0,0-2.17.83,3.05,3.05,0,0,0-.79,2.21v4.16H106V15.83h.72v1.69a2.91,2.91,0,0,1,1.2-1.28,3.59,3.59,0,0,1,1.89-.47A3.17,3.17,0,0,1,112.12,16.62Z"/><path class="cls-1" d="M116,12.54h.75v11.1H116Z"/><path class="cls-1" d="M121,23.19a3.65,3.65,0,0,1-1.4-1.41,4.36,4.36,0,0,1,0-4.09,3.72,3.72,0,0,1,1.4-1.41,4.14,4.14,0,0,1,4,0,3.72,3.72,0,0,1,1.4,1.41,4.36,4.36,0,0,1,0,4.09,3.65,3.65,0,0,1-1.4,1.41,4.14,4.14,0,0,1-4,0Zm3.6-.58a3.07,3.07,0,0,0,1.12-1.17,3.78,3.78,0,0,0,.41-1.71,3.71,3.71,0,0,0-.41-1.7,3,3,0,0,0-1.12-1.18,3.3,3.3,0,0,0-3.22,0A3,3,0,0,0,120.26,18a3.71,3.71,0,0,0-.41,1.7,3.78,3.78,0,0,0,.41,1.71,3.07,3.07,0,0,0,1.12,1.17,3.3,3.3,0,0,0,3.22,0Z"/><path class="cls-1" d="M134,16.51a2.91,2.91,0,0,1,.77,2.18v4.95h-.71V22.25A2.61,2.61,0,0,1,133,23.32a3.55,3.55,0,0,1-1.72.38,3.13,3.13,0,0,1-2.05-.61,2.1,2.1,0,0,1-.55-.71,2.08,2.08,0,0,1,0-1.76,2,2,0,0,1,.52-.73,3.34,3.34,0,0,1,2.21-.6h2.68v-.63a2.21,2.21,0,0,0-.59-1.66,2.36,2.36,0,0,0-1.72-.57,4.22,4.22,0,0,0-1.49.27,3.76,3.76,0,0,0-1.2.72l-.38-.54a4.15,4.15,0,0,1,1.41-.81,5,5,0,0,1,1.72-.3A3.12,3.12,0,0,1,134,16.51Zm-1,6.13a2.75,2.75,0,0,0,1-1.3V19.87H131.4a2.66,2.66,0,0,0-1.67.42,1.43,1.43,0,0,0-.39.52,1.41,1.41,0,0,0-.12.64,1.54,1.54,0,0,0,.13.67,1.41,1.41,0,0,0,.44.53,2.55,2.55,0,0,0,1.59.44,2.89,2.89,0,0,0,1.65-.45Z"/><path class="cls-1" d="M144.83,12.54v11.1h-.73V21.8a3.49,3.49,0,0,1-1.31,1.41,3.68,3.68,0,0,1-1.89.49,3.9,3.9,0,0,1-2-.51,3.67,3.67,0,0,1-1.38-1.41,4.43,4.43,0,0,1,0-4.09,3.6,3.6,0,0,1,1.38-1.41,3.91,3.91,0,0,1,2-.5,3.5,3.5,0,0,1,3.18,1.87v-5.1Zm-2.28,10.07a3.07,3.07,0,0,0,1.12-1.17,3.78,3.78,0,0,0,.41-1.71,3.71,3.71,0,0,0-.41-1.7,3,3,0,0,0-1.12-1.17,3.28,3.28,0,0,0-3.21,0A2.93,2.93,0,0,0,138.22,18a3.71,3.71,0,0,0-.41,1.7,3.78,3.78,0,0,0,.41,1.71,3,3,0,0,0,1.12,1.17,3.28,3.28,0,0,0,3.21,0Z"/><path class="cls-1" d="M152.87,23.19a3.65,3.65,0,0,1-1.4-1.41,4.36,4.36,0,0,1,0-4.09,3.65,3.65,0,0,1,1.4-1.41,4.16,4.16,0,0,1,4,0,3.62,3.62,0,0,1,1.39,1.41,4.36,4.36,0,0,1,0,4.09,3.62,3.62,0,0,1-1.39,1.41,4.16,4.16,0,0,1-4,0Zm3.6-.58a3.07,3.07,0,0,0,1.12-1.17,3.78,3.78,0,0,0,.41-1.71,3.71,3.71,0,0,0-.41-1.7,3,3,0,0,0-1.12-1.18,3.3,3.3,0,0,0-3.22,0A3,3,0,0,0,152.13,18a3.71,3.71,0,0,0-.41,1.7,3.78,3.78,0,0,0,.41,1.71,3.07,3.07,0,0,0,1.12,1.17,3.3,3.3,0,0,0,3.22,0Z"/><path class="cls-1" d="M167.2,16.62a3.33,3.33,0,0,1,.85,2.46v4.56h-.75v-4.5a2.8,2.8,0,0,0-.66-2,2.45,2.45,0,0,0-1.86-.69,2.87,2.87,0,0,0-2.17.83,3.1,3.1,0,0,0-.79,2.21v4.16h-.74V15.83h.71v1.69a2.91,2.91,0,0,1,1.2-1.28,3.71,3.71,0,0,1,1.89-.47A3.17,3.17,0,0,1,167.2,16.62Z"/><path class="cls-1" d="M178.83,23.15a2,2,0,0,1-.71.41,2.89,2.89,0,0,1-.88.14,2.05,2.05,0,0,1-1.57-.56,2.11,2.11,0,0,1-.55-1.56v-5.1h-1.44v-.65h1.43v-1.7h.76v1.7h2.48v.65h-2.48v5a1.62,1.62,0,0,0,.37,1.16,1.37,1.37,0,0,0,1.08.4,1.74,1.74,0,0,0,1.21-.44Z"/><path class="cls-1" d="M187,16.62a3.33,3.33,0,0,1,.85,2.46v4.56h-.74v-4.5a2.76,2.76,0,0,0-.67-2,2.44,2.44,0,0,0-1.85-.69,2.87,2.87,0,0,0-2.17.83,3.05,3.05,0,0,0-.79,2.21v4.16h-.75V12.54h.75v4.92a2.93,2.93,0,0,1,1.19-1.25,3.93,3.93,0,0,1,1.87-.44A3.13,3.13,0,0,1,187,16.62Z"/><path class="cls-1" d="M197.56,19.92h-6.7a3.3,3.3,0,0,0,.46,1.62,3,3,0,0,0,1.17,1.1,3.81,3.81,0,0,0,3.08.11,2.8,2.8,0,0,0,1.08-.82l.44.5a3.41,3.41,0,0,1-1.28.94,4.22,4.22,0,0,1-1.89.32,4.4,4.4,0,0,1-1.85-.5,3.72,3.72,0,0,1-1.43-1.41,4,4,0,0,1-.51-2,4.27,4.27,0,0,1,.48-2A3.59,3.59,0,0,1,192,16.27a4,4,0,0,1,1.91-.51,3.9,3.9,0,0,1,1.91.51,3.56,3.56,0,0,1,1.33,1.39,4.26,4.26,0,0,1,.48,2Zm-5.18-3.12a2.8,2.8,0,0,0-1,1,3.33,3.33,0,0,0-.46,1.5h6a3.13,3.13,0,0,0-.45-1.49,2.94,2.94,0,0,0-1.08-1.05,3.14,3.14,0,0,0-2.94,0Z"/><path class="cls-1" d="M83,46.79H74.11l-1.76,4.14H68.93L77,33h3.27l8.07,17.9H84.83Zm-1.1-2.61-3.36-7.82-3.35,7.82Z"/><path class="cls-1" d="M101.38,38a6.28,6.28,0,0,1,2.47,2.46,7.35,7.35,0,0,1,.89,3.66,7.42,7.42,0,0,1-.89,3.66,6.24,6.24,0,0,1-2.47,2.47,7.24,7.24,0,0,1-3.56.87,5.47,5.47,0,0,1-4.36-1.84v6.62H90.27V37.28h3v1.79a4.88,4.88,0,0,1,2-1.47,6.58,6.58,0,0,1,2.56-.48A7.24,7.24,0,0,1,101.38,38Zm-1,9.2a4.32,4.32,0,0,0,1.14-3.09A4.24,4.24,0,0,0,100.36,41a3.87,3.87,0,0,0-2.9-1.17,4.19,4.19,0,0,0-2.07.52,3.83,3.83,0,0,0-1.46,1.5,5,5,0,0,0,0,4.5,3.87,3.87,0,0,0,1.46,1.49,4.09,4.09,0,0,0,2.07.53,3.88,3.88,0,0,0,2.9-1.19Z"/><path class="cls-1" d="M118.89,38a6.19,6.19,0,0,1,2.46,2.46,7.25,7.25,0,0,1,.9,3.66,7.43,7.43,0,0,1-.9,3.66,6.22,6.22,0,0,1-2.46,2.47,7.24,7.24,0,0,1-3.56.87A5.47,5.47,0,0,1,111,49.27v6.62h-3.2V37.28h3v1.79a5,5,0,0,1,2-1.47,6.66,6.66,0,0,1,2.57-.48A7.24,7.24,0,0,1,118.89,38Zm-1,9.2a4.79,4.79,0,0,0,0-6.18,3.88,3.88,0,0,0-2.9-1.17,4.16,4.16,0,0,0-2.07.52,3.83,3.83,0,0,0-1.46,1.5,5,5,0,0,0,0,4.5,3.87,3.87,0,0,0,1.46,1.49,4.09,4.09,0,0,0,2.07.53,3.88,3.88,0,0,0,2.9-1.19Z"/><path class="cls-1" d="M134.18,50.59A8.38,8.38,0,0,1,131.13,49l1.15-2.59A8.69,8.69,0,0,0,135,47.87a10,10,0,0,0,3.2.55,5.58,5.58,0,0,0,3-.64,1.93,1.93,0,0,0,1-1.69,1.63,1.63,0,0,0-.13-.69,1.73,1.73,0,0,0-.42-.58,3.79,3.79,0,0,0-1.39-.77c-.56-.19-1.33-.4-2.29-.64a27.31,27.31,0,0,1-3.31-1,5.42,5.42,0,0,1-2.17-1.52,4.11,4.11,0,0,1-.9-2.8,4.79,4.79,0,0,1,.8-2.69,5.47,5.47,0,0,1,2.42-1.93,9.78,9.78,0,0,1,4-.72,12.92,12.92,0,0,1,3.22.41,9.06,9.06,0,0,1,2.73,1.17l-1.05,2.58a10.21,10.21,0,0,0-2.45-1,8.63,8.63,0,0,0-2.47-.36,5.17,5.17,0,0,0-2.92.66,2,2,0,0,0-1,1.76,1.55,1.55,0,0,0,.55,1.25,3.88,3.88,0,0,0,1.39.77c.56.19,1.33.4,2.3.64a23,23,0,0,1,3.26,1,5.56,5.56,0,0,1,2.19,1.52,4,4,0,0,1,.9,2.76,4.74,4.74,0,0,1-.8,2.68,5.53,5.53,0,0,1-2.44,1.92,9.87,9.87,0,0,1-4,.71A13.46,13.46,0,0,1,134.18,50.59Z"/><path class="cls-1" d="M156.58,50.19a3.85,3.85,0,0,1-1.37.69,6.44,6.44,0,0,1-1.69.23,4.77,4.77,0,0,1-3.47-1.18,4.5,4.5,0,0,1-1.23-3.42V39.94h-2.25V37.38h2.25V34.27H152v3.11h3.65v2.56H152v6.49a2.17,2.17,0,0,0,.48,1.52,1.83,1.83,0,0,0,1.41.53,2.84,2.84,0,0,0,1.78-.56Z"/><path class="cls-1" d="M161.15,50.21a6.55,6.55,0,0,1-2.6-2.49,7.47,7.47,0,0,1,0-7.22,6.69,6.69,0,0,1,2.6-2.49,8.28,8.28,0,0,1,7.47,0,6.6,6.6,0,0,1,2.59,2.49,7.4,7.4,0,0,1,0,7.22,6.46,6.46,0,0,1-2.59,2.49,8.28,8.28,0,0,1-7.47,0Zm6.63-3a4.73,4.73,0,0,0,0-6.18,3.92,3.92,0,0,0-2.91-1.17A3.84,3.84,0,0,0,162,41a4.76,4.76,0,0,0,0,6.18,3.85,3.85,0,0,0,2.89,1.18A3.93,3.93,0,0,0,167.78,47.19Z"/><path class="cls-1" d="M183.1,37.12v3.05a4.21,4.21,0,0,0-3.65,1,4.31,4.31,0,0,0-1,3.13v6.62h-3.19V37.28h3v2Q179.62,37.13,183.1,37.12Z"/><path class="cls-1" d="M198.44,45.12h-10.7a3.71,3.71,0,0,0,1.46,2.39,4.8,4.8,0,0,0,3,.88,5,5,0,0,0,3.7-1.48l1.71,2a5.74,5.74,0,0,1-2.32,1.66,8.38,8.38,0,0,1-3.17.56,8.49,8.49,0,0,1-3.95-.89,6.46,6.46,0,0,1-2.64-2.49,7.07,7.07,0,0,1-.94-3.62,7.26,7.26,0,0,1,.91-3.59A6.46,6.46,0,0,1,188,38a7.42,7.42,0,0,1,3.63-.89,7.15,7.15,0,0,1,3.56.88,6.19,6.19,0,0,1,2.45,2.47,7.64,7.64,0,0,1,.88,3.7A9,9,0,0,1,198.44,45.12ZM189,40.59A3.72,3.72,0,0,0,187.72,43h7.73a3.74,3.74,0,0,0-1.25-2.4,4.14,4.14,0,0,0-5.19,0Z"/></g></g></svg>