<svg xmlns="http://www.w3.org/2000/svg" viewBox="0 0 220 67.01"><defs><style>.cls-1{fill:#fff;}</style></defs><g id="Layer_2" data-name="Layer 2"><g id="Layer_1-2" data-name="Layer 1"><path class="cls-1" d="M52.94,32.65l-8.39-4.84-6.89,6.68,6.3,6.1,9-5.19a1.51,1.51,0,0,0,.57-.58,1.6,1.6,0,0,0,.22-.79,1.63,1.63,0,0,0-.22-.8,1.42,1.42,0,0,0-.57-.57Z"/><path class="cls-1" d="M43.13,27l-9.22-5.33L13.69,11.27,36.52,33.38Z"/><path class="cls-1" d="M14,57.36l19.91-11,8.6-5-6-5.82Z"/><path class="cls-1" d="M12.35,12.17l0,44.64L35.39,34.48Z"/><path class="cls-1" d="M211.5,1.46a7.07,7.07,0,0,1,7,7.06v50a7.07,7.07,0,0,1-7,7.06H8.5a7.07,7.07,0,0,1-7-7.06v-50a7.07,7.07,0,0,1,7-7.06Zm0-1.46H8.5A8.5,8.5,0,0,0,0,8.52v50a8.47,8.47,0,0,0,.65,3.26,8.43,8.43,0,0,0,4.6,4.61A8.45,8.45,0,0,0,8.5,67h203a8.54,8.54,0,0,0,6-2.49,8.34,8.34,0,0,0,1.84-2.77,8.47,8.47,0,0,0,.65-3.26v-50A8.5,8.5,0,0,0,211.5,0Z"/><path class="cls-1" d="M72.1,40.48h3.07v7A9.7,9.7,0,0,1,72,49.1a11.81,11.81,0,0,1-3.69.57,9.85,9.85,0,0,1-4.81-1.16,8.5,8.5,0,0,1-3.36-3.21,9.29,9.29,0,0,1,0-9.24,8.55,8.55,0,0,1,3.38-3.21,10.1,10.1,0,0,1,4.85-1.17,10.7,10.7,0,0,1,4,.74,7.79,7.79,0,0,1,3,2.12l-2.05,2a6.55,6.55,0,0,0-4.81-2,6.8,6.8,0,0,0-3.28.77A5.68,5.68,0,0,0,63,37.49a6.61,6.61,0,0,0,0,6.34A5.8,5.8,0,0,0,65.26,46a6.6,6.6,0,0,0,3.25.8,7,7,0,0,0,3.59-.9Z"/><path class="cls-1" d="M81.48,48.72A6.29,6.29,0,0,1,79,46.29a7.3,7.3,0,0,1,0-7.06,6.33,6.33,0,0,1,2.53-2.42,8,8,0,0,1,7.31,0,6.33,6.33,0,0,1,2.53,2.42,7.28,7.28,0,0,1,0,7.05,6.38,6.38,0,0,1-2.53,2.44,8.11,8.11,0,0,1-7.31,0ZM88,45.78a4.61,4.61,0,0,0,0-6.05,4.07,4.07,0,0,0-5.67,0,4.68,4.68,0,0,0,0,6.05,3.78,3.78,0,0,0,2.83,1.15A3.86,3.86,0,0,0,88,45.78Z"/><path class="cls-1" d="M97.57,48.72A6.23,6.23,0,0,1,95,46.29a7.23,7.23,0,0,1,0-7.06,6.27,6.27,0,0,1,2.53-2.42,8,8,0,0,1,7.3,0,6.36,6.36,0,0,1,2.54,2.42,7.28,7.28,0,0,1,0,7.05,6.38,6.38,0,0,1-2.53,2.44,8.11,8.11,0,0,1-7.31,0Zm6.48-2.94a4.61,4.61,0,0,0,0-6.05,4.07,4.07,0,0,0-5.67,0,4.68,4.68,0,0,0,0,6.05,3.78,3.78,0,0,0,2.83,1.15A3.86,3.86,0,0,0,104.05,45.78Z"/><path class="cls-1" d="M124.53,36.08V47.4q0,7.05-7.18,7.05a13.54,13.54,0,0,1-3.64-.49,7.77,7.77,0,0,1-2.85-1.41l1.4-2.34a6.78,6.78,0,0,0,2.21,1.16,8.53,8.53,0,0,0,2.7.44,4.5,4.5,0,0,0,3.22-1,4.12,4.12,0,0,0,1-3.05v-.7a5.23,5.23,0,0,1-2,1.32,6.94,6.94,0,0,1-2.52.45,7.13,7.13,0,0,1-3.42-.81,6.13,6.13,0,0,1-2.42-2.29,6.81,6.81,0,0,1,0-6.73,6,6,0,0,1,2.42-2.26,7.3,7.3,0,0,1,3.43-.8,7.16,7.16,0,0,1,2.63.47,4.93,4.93,0,0,1,2,1.45V36.08Zm-4.2,9a3.64,3.64,0,0,0,1.13-2.77,3.56,3.56,0,0,0-1.13-2.72,4.59,4.59,0,0,0-5.84,0,3.53,3.53,0,0,0-1.14,2.72,3.61,3.61,0,0,0,1.14,2.77,4.55,4.55,0,0,0,5.84,0Z"/><path class="cls-1" d="M128.62,30.88h3.12V49.42h-3.12Z"/><path class="cls-1" d="M148.3,43.75H137.85a3.62,3.62,0,0,0,1.43,2.34,4.7,4.7,0,0,0,2.89.87,4.87,4.87,0,0,0,3.61-1.45l1.67,1.91a5.51,5.51,0,0,1-2.27,1.63,9,9,0,0,1-7-.33,6.36,6.36,0,0,1-2.58-2.43,7.35,7.35,0,0,1,0-7,6.25,6.25,0,0,1,2.45-2.44,7.33,7.33,0,0,1,3.55-.88,7,7,0,0,1,3.48.87,6,6,0,0,1,2.39,2.42,7.38,7.38,0,0,1,.86,3.61C148.35,43,148.34,43.35,148.3,43.75Zm-9.21-4.43a3.68,3.68,0,0,0-1.26,2.36h7.55a3.65,3.65,0,0,0-1.22-2.34,4.06,4.06,0,0,0-5.07,0Z"/><path class="cls-1" d="M169.67,32.68a5.84,5.84,0,0,1,2.58,2.16,6.56,6.56,0,0,1,0,6.63,5.77,5.77,0,0,1-2.58,2.16,9.68,9.68,0,0,1-4,.75h-3.94v5h-3.25V31.93h7.19A9.71,9.71,0,0,1,169.67,32.68Zm-.89,8a3.55,3.55,0,0,0,0-5.14,5,5,0,0,0-3.21-.9h-3.8v6.94h3.8a5,5,0,0,0,3.21-.9Z"/><path class="cls-1" d="M176.34,30.88h3.12V49.42h-3.12Z"/><path class="cls-1" d="M193.14,37.34a5.49,5.49,0,0,1,1.56,4.26v7.82h-2.94V47.8a3.7,3.7,0,0,1-1.64,1.34,6.56,6.56,0,0,1-2.56.46,6.3,6.3,0,0,1-2.61-.51,4,4,0,0,1-1.74-1.43,3.58,3.58,0,0,1-.61-2.06,3.51,3.51,0,0,1,1.33-2.88,6.59,6.59,0,0,1,4.21-1.09h3.44v-.2a2.74,2.74,0,0,0-.84-2.15,3.59,3.59,0,0,0-2.48-.75,7.19,7.19,0,0,0-2.21.35,5.29,5.29,0,0,0-1.83,1L183,37.58a7.41,7.41,0,0,1,2.51-1.22,11.4,11.4,0,0,1,3.12-.43A6.5,6.5,0,0,1,193.14,37.34Zm-2.85,9.45a2.91,2.91,0,0,0,1.29-1.54V43.7h-3.21c-1.8,0-2.7.59-2.7,1.78a1.57,1.57,0,0,0,.17.76,1.77,1.77,0,0,0,.5.59,3.12,3.12,0,0,0,1.87.49A4,4,0,0,0,190.29,46.79Z"/><path class="cls-1" d="M210.91,36.08,204.68,50.5a6.78,6.78,0,0,1-2.13,3.06,5,5,0,0,1-3,.89,6,6,0,0,1-2-.33,4.24,4.24,0,0,1-1.59-.89l1.24-2.3a3.46,3.46,0,0,0,1.06.67,3.27,3.27,0,0,0,1.24.25,2.15,2.15,0,0,0,1.36-.42,3.9,3.9,0,0,0,1-1.43l.23-.52-5.82-13.39h3.25L203.71,46l4.21-9.86Z"/><path class="cls-1" d="M64.51,22.23a4.36,4.36,0,0,1-2-.47A5,5,0,0,1,61,20.53a6.08,6.08,0,0,1-1.06-1.76,5.57,5.57,0,0,1-.38-2A5.72,5.72,0,0,1,60.94,13a4.85,4.85,0,0,1,1.58-1.19,4.57,4.57,0,0,1,2-.43,4.65,4.65,0,0,1,2.56.65,4.15,4.15,0,0,1,1.53,1.69l-1,.74A3.16,3.16,0,0,0,66.27,13a3.62,3.62,0,0,0-1.79-.46,3.29,3.29,0,0,0-1.48.35,3.47,3.47,0,0,0-1.14.95,4.31,4.31,0,0,0-.73,1.35,5,5,0,0,0-.25,1.57,4.72,4.72,0,0,0,.28,1.62A4.07,4.07,0,0,0,62,19.76a3.78,3.78,0,0,0,1.19.91,3.27,3.27,0,0,0,1.47.34,3.48,3.48,0,0,0,1.75-.47,5.4,5.4,0,0,0,1.57-1.44v1.41A4.39,4.39,0,0,1,64.51,22.23Zm3.26-4.4H65.46v-1h3.45v5.35H67.77Z"/><path class="cls-1" d="M78.25,20.94v1.21H71V11.42h7.14v1.21H72.34V16.1h5v1.13h-5v3.71Z"/><path class="cls-1" d="M87.84,12.63h-3.7v9.52H82.79V12.63h-3.7V11.42h8.75Z"/><path class="cls-1" d="M92.74,22.15V11.42H94.1V22.15Z"/><path class="cls-1" d="M98,13.93v8.22H96.67V11.42h1.14l6.55,8.38V11.43h1.36V22.15h-1.24Z"/><path class="cls-1" d="M116.45,22.23a4.69,4.69,0,0,1-2-.46,5,5,0,0,1-1.59-1.23,5.83,5.83,0,0,1-1.4-3.76,5.57,5.57,0,0,1,.39-2.05A5.75,5.75,0,0,1,112.87,13a5,5,0,0,1,1.61-1.21,4.73,4.73,0,0,1,4,0,5.06,5.06,0,0,1,1.58,1.25,6,6,0,0,1,1,1.76,5.69,5.69,0,0,1,.26,3,5.62,5.62,0,0,1-1.34,2.73,5,5,0,0,1-1.61,1.21A4.77,4.77,0,0,1,116.45,22.23Zm-3.67-5.45a5,5,0,0,0,.26,1.58,4.53,4.53,0,0,0,.75,1.36,3.61,3.61,0,0,0,1.16.93,3.19,3.19,0,0,0,1.51.35,3.15,3.15,0,0,0,1.54-.36,3.74,3.74,0,0,0,1.16-1,4.7,4.7,0,0,0,.73-1.36,5,5,0,0,0,.25-1.53,4.71,4.71,0,0,0-.27-1.57,4.37,4.37,0,0,0-.75-1.35,3.68,3.68,0,0,0-1.17-.94,3.45,3.45,0,0,0-3,0,3.57,3.57,0,0,0-1.16,1,5,5,0,0,0-.73,1.36A4.61,4.61,0,0,0,112.78,16.78Z"/><path class="cls-1" d="M124.74,13.93v8.22h-1.35V11.42h1.14l6.55,8.38V11.43h1.36V22.15H131.2Z"/></g></g></svg>