<svg xmlns="http://www.w3.org/2000/svg" viewBox="0 0 89.45 11"><defs><style>.cls-1{fill:#fffeff;}</style></defs><g id="Layer_2" data-name="Layer 2"><g id="Layer_1-2" data-name="Layer 1"><path class="cls-1" d="M9,5.5,0,11V0Z"/><path class="cls-1" d="M19.5,8.65a2.6,2.6,0,0,1-1.15-.24,1.76,1.76,0,0,1-.74-.66,1.81,1.81,0,0,1-.26-1v-3h-.7V3.5h.7V3a.8.8,0,0,1,.9-.9H19V3.5h1.4v.25H19V6.8a2.83,2.83,0,0,0,.19,1.26.6.6,0,0,0,.56.34.79.79,0,0,0,.63-.35,1.51,1.51,0,0,0,.27-1h.25a1.64,1.64,0,0,1-.37,1.15A1.26,1.26,0,0,1,19.5,8.65Zm6.11,0a2.21,2.21,0,0,1-1-.23,1.81,1.81,0,0,1-.69-.62,1.4,1.4,0,0,1-.25-.8V3.8l-.6-.15V3.5h1.3a.8.8,0,0,1,.9.9V7a1.76,1.76,0,0,0,.22,1A.65.65,0,0,0,26,8.3a.84.84,0,0,0,.67-.4,2.68,2.68,0,0,0,.23-.4V3.8l-.6-.15V3.5h2.8v.15l-.6.15V8.55h-.1a1.44,1.44,0,0,1-1.11-.4.88.88,0,0,1-.24-.4,2.61,2.61,0,0,1-.33.45A1.53,1.53,0,0,1,25.61,8.65Zm6.1-.3.6-.15V3.8l-.6-.15V3.5h.9a1.14,1.14,0,0,1,1.15.75,1.87,1.87,0,0,1,.33-.45,1.52,1.52,0,0,1,1.12-.45,2.05,2.05,0,0,1,1,.24,1.82,1.82,0,0,1,.7.61,1.4,1.4,0,0,1,.25.8V8.2l.6.15V8.5h-1.3a.8.8,0,0,1-.9-.9V5a1.7,1.7,0,0,0-.23-1,.62.62,0,0,0-.52-.34.85.85,0,0,0-.68.4,1.53,1.53,0,0,0-.22.4V8.2l.6.15V8.5h-2.8Zm11.35.3a2.7,2.7,0,0,1-2-.7A2.64,2.64,0,0,1,40.36,6a3,3,0,0,1,.31-1.41,2.19,2.19,0,0,1,.86-.92,2.56,2.56,0,0,1,1.28-.32,2.78,2.78,0,0,1,1.26.27,2,2,0,0,1,.84.73,1.83,1.83,0,0,1,.25,1.43l0,.17q-.44.09-.93.15a15,15,0,0,1-2.12.15,3.25,3.25,0,0,0,.32,1.66,1,1,0,0,0,.88.49,1.48,1.48,0,0,0,1.25-.67,1.2,1.2,0,0,0,.2-.63H45a1.34,1.34,0,0,1-.24.76,1.74,1.74,0,0,1-.67.58A2.25,2.25,0,0,1,43.06,8.65ZM42.06,6a9.48,9.48,0,0,0,1,0,2.58,2.58,0,0,0,.36,0s0-.11,0-.22a3,3,0,0,0,.05-.53,2.48,2.48,0,0,0-.22-1.21c-.15-.26-.32-.39-.53-.39C42.31,3.55,42.06,4.37,42.06,6Zm5.85,2.35.6-.15V4h-.7V3.7h.7V3.2a1.8,1.8,0,0,1,.25-1,1.74,1.74,0,0,1,.73-.66,2.46,2.46,0,0,1,1.12-.24,2.21,2.21,0,0,1,.89.16,1.31,1.31,0,0,1,.57.41.9.9,0,0,1,.19.53.74.74,0,0,1-.21.55.77.77,0,0,1-.54.2l-.28,0-.12,0V1.6l-.09,0-.09,0h-.12a.56.56,0,0,0-.52.36,3.13,3.13,0,0,0-.18,1.29v.5h1.6V4h-1.6V8.2l.6.15V8.5h-2.8Zm7.1,0,.6-.15V3.8L55,3.65V3.5h1.3a.8.8,0,0,1,.9.9V8.2l.6.15V8.5H55Zm1.3-5.45a.69.69,0,0,1-.5-.2.65.65,0,0,1-.2-.5.65.65,0,0,1,.2-.5.69.69,0,0,1,.5-.2.7.7,0,0,1,.5.2.69.69,0,0,1,.2.5.69.69,0,0,1-.2.5A.7.7,0,0,1,56.31,2.9ZM60.4,8.35,61,8.2V3.8l-.6-.15V3.5h.9a1.18,1.18,0,0,1,.93.38,1.21,1.21,0,0,1,.22.37,2.61,2.61,0,0,1,.33-.45,1.53,1.53,0,0,1,1.12-.45,2,2,0,0,1,1,.24,1.75,1.75,0,0,1,.7.61,1.4,1.4,0,0,1,.25.8V8.2l.6.15V8.5h-1.3a.8.8,0,0,1-.9-.9V5A1.62,1.62,0,0,0,64,4a.61.61,0,0,0-.52-.34.85.85,0,0,0-.68.4,1.89,1.89,0,0,0-.22.4V8.2l.6.15V8.5H60.4Zm10.71.3a1.85,1.85,0,0,1-1-.3,2.13,2.13,0,0,1-.73-.9A3.51,3.51,0,0,1,69.06,6a2.87,2.87,0,0,1,.59-2,2,2,0,0,1,1.61-.69,1.74,1.74,0,0,1,.84.2,1.61,1.61,0,0,1,.31.2V1.8l-.6-.15V1.5h1.3a.8.8,0,0,1,.9.9V8.2l.6.15V8.5h-.9a1.17,1.17,0,0,1-.93-.37,1,1,0,0,1-.22-.38,1.87,1.87,0,0,1-.33.45A1.53,1.53,0,0,1,71.11,8.65Zm.4-.35a.84.84,0,0,0,.67-.4,2.68,2.68,0,0,0,.23-.4V4.05l-.23-.2a.92.92,0,0,0-.52-.2.74.74,0,0,0-.67.5A4.86,4.86,0,0,0,70.76,6,5.3,5.3,0,0,0,71,7.8C71.11,8.13,71.29,8.3,71.51,8.3ZM80,8.65A2.68,2.68,0,0,1,78,8,2.6,2.6,0,0,1,77.26,6a3,3,0,0,1,.31-1.41,2.13,2.13,0,0,1,.86-.92,2.56,2.56,0,0,1,1.28-.32A2.78,2.78,0,0,1,81,3.62a2.07,2.07,0,0,1,.84.73,1.83,1.83,0,0,1,.25,1.43L82,6q-.44.09-.93.15A15,15,0,0,1,79,6.25a3.15,3.15,0,0,0,.32,1.66,1,1,0,0,0,.88.49,1.48,1.48,0,0,0,.72-.18,1.56,1.56,0,0,0,.53-.49,1.2,1.2,0,0,0,.2-.63h.25a1.34,1.34,0,0,1-.24.76,1.81,1.81,0,0,1-.67.58A2.25,2.25,0,0,1,80,8.65ZM79,6a9.62,9.62,0,0,0,1,0,2.58,2.58,0,0,0,.36,0,1.36,1.36,0,0,1,0-.22,3,3,0,0,0,0-.53,2.6,2.6,0,0,0-.22-1.21.64.64,0,0,0-.53-.39C79.21,3.55,79,4.37,79,6Zm5.89,2.35.6-.15V3.8l-.6-.15V3.5h.9a1.19,1.19,0,0,1,.93.38,1.21,1.21,0,0,1,.22.37,1.83,1.83,0,0,1,1.49-.8,1.07,1.07,0,0,1,.79.25.88.88,0,0,1,.27.7.71.71,0,0,1-.75.75l-.28,0-.12,0V3.7a1.31,1.31,0,0,0-.93.4,2.24,2.24,0,0,0-.32.4V8.2l.6.15V8.5h-2.8Z"/></g></g></svg>